<svg id="Layer_1" height="512" viewBox="0 0 128 128" width="512" xmlns="http://www.w3.org/2000/svg" data-name="Layer 1"><path d="m73.372 64.125 8.328-8.741a15.313 15.313 0 0 0 16.517-3.81l18.951-19.894a3.923 3.923 0 0 0 -5.507-5.583l-17.399 16.123a.46.46 0 0 1 -.649-.65l16.122-17.4a3.909 3.909 0 0 0 -.1-5.44l-.362-.362a3.911 3.911 0 0 0 -5.439-.1l-17.404 16.12a.46.46 0 0 1 -.649-.65l16.122-17.4a3.922 3.922 0 0 0 -5.582-5.507l-19.895 18.948a15.4 15.4 0 0 0 -3.826 16.53l-8.958 8.541-7.119-6.786a20.236 20.236 0 0 0 -3.829-23.264c-7.572-7.577-28.164-16.087-36.43-7.819s.241 28.858 7.814 36.431a20.236 20.236 0 0 0 23.277 3.836l6.556 6.878-41.548 39.6a8.424 8.424 0 0 0 5.809 14.521h.1a8.359 8.359 0 0 0 6-2.611l39.37-41.3 39.369 41.3a8.359 8.359 0 0 0 6 2.611h.1a8.424 8.424 0 0 0 5.809-14.521zm7.246-20.625a1.75 1.75 0 1 0 -2.418-2.53l-2.76 2.63a11.9 11.9 0 0 1 3.4-11.287l19.894-18.947a.426.426 0 0 1 .59.008.421.421 0 0 1 .012.585l-16.122 17.4a3.96 3.96 0 0 0 5.595 5.6l17.4-16.123a.421.421 0 0 1 .586.011l.362.363a.421.421 0 0 1 .012.585l-16.123 17.395a3.96 3.96 0 0 0 5.595 5.6l17.4-16.123a.422.422 0 0 1 .593.6l-18.947 19.893a11.9 11.9 0 0 1 -11.286 3.4l2.629-2.76a1.75 1.75 0 0 0 -2.53-2.418l-13.661 14.329-4.661-4.443zm-58.88 69.72a4.886 4.886 0 0 1 -3.5 1.526 4.819 4.819 0 0 1 -3.541-1.441 4.924 4.924 0 0 1 .084-7.046l41.549-39.6 4.9 5.14zm90.853.085a4.886 4.886 0 0 1 -3.479 1.442h-.061a4.889 4.889 0 0 1 -3.507-1.526l-47.891-50.242-14.867-15.597a1.75 1.75 0 0 0 -2.533 2.418l4.537 4.76a16.738 16.738 0 0 1 -18.237-3.62c-7.216-7.216-13.8-25.5-7.814-31.481s24.261.596 31.481 7.811a16.738 16.738 0 0 1 3.62 18.237l-4.761-4.537a1.75 1.75 0 1 0 -2.414 2.53l65.841 62.759a4.925 4.925 0 0 1 .085 7.046z"/></svg>